<svg version="1" xmlns="http://www.w3.org/2000/svg" width="533.333" height="533.333" viewBox="0 0 400.000000 400.000000"><path d="M177.3 4.7c-1.7.3-2.3 1.2-2.3 3.1-.1 4.4-2.7 16.4-4.4 20.7l-1.7 4 .6-7.7c.7-9.3-.3-11.8-4.5-11.8-1.7 0-3-.5-3-1 0-.7-2.5-1-6.7-.8-5.6.2-6.9.7-7.8 2.3-1.2 2.4-4.6 2.2-7.1-.6-.9-1-2.4-1.9-3.3-1.9-.9 0-2.4-.9-3.4-2-.9-1.1-2.6-2-3.6-2-1.1 0-2.3-.5-2.6-1-.3-.6-3.6-1-7.3-1-5.5 0-7.1.4-8.5 2-3.2 3.7-1.6 13.2 2.9 17.8 2.1 2 6.7 1.1 7.9-1.6 1.1-2.5 2.7-2.8 4.3-.9.6.7 1.3 5.7 1.6 11.2.6 12.4 1.4 17.1 3.2 18.6.8.6 1.4 1.8 1.4 2.5 0 1.9 4.9 12.5 6.5 14.1.8.7 1.7 2.2 2 3.3.5 1.5 1.5 2 4.1 2 3.9 0 6-1.6 7.5-5.7.5-1.5 2.3-3.6 3.9-4.5 2.8-1.6 3-2.1 3-7.3 0-3 .4-5.5.9-5.5s1.2-1.6 1.5-3.5c.5-2.6 1.2-3.5 2.6-3.5 2.3 0 2.4.8.9 4.7-.6 1.5-1.5 3.7-2 4.8-2.6 6.6-3.1 10.4-2.5 18.7.4 6.7.3 9-.7 9.2-.6.2-7.9 1.6-16.2 3.1-8.2 1.6-22.9 5-32.5 7.6-9.6 2.6-18.1 4.9-18.9 5.1-1 .2-1.9-1.5-2.9-5.5-1.2-4.7-2-6-4.1-6.8-2.8-1.1-9.5.3-10.7 2.2-.3.6.2 3.9 1.2 7.5 1.1 4.3 1.4 6.8.7 7.5-.5.5-5.6 2.7-11.4 4.9-5.7 2.2-11 4.8-11.6 5.7-1.7 2.2-1.6 7.3.2 32.3 1.7 23.9 2.1 26.6 3.9 27.3 1.2.5 10.3-2.8 24.1-8.6 6.8-2.9 46.4-13.5 67.8-18.2 7.8-1.7 7.9-1.7 9.8.4 1.1 1.2 2.7 2.1 3.5 2.1 2.4 0 5.4-1.9 5.4-3.5 0-1.9.6-2.2 6.8-3 5.2-.7 5.3-.7 4 1.4-2.2 3.5 0 4.5 7.4 3.2 10.1-1.7 32.9-3.1 34.9-2 1 .5 4.4.6 7.6.3 8-.9 19 1.1 29.3 5.2 8.2 3.3 28 9.4 30.5 9.4.7 0 5.4 1.6 10.5 3.5 11.3 4.4 12 4.1 12-5.4 0-17.3-4.2-50.5-6.7-53.3-1-1.1-1.3-2.8-1-4.5.7-3.8-5-9.6-9-9.1-2.4.3-2.8.8-3.1 4-.2 2.1-.6 3.8-.8 3.8-.3 0-3.9-1-7.9-2.1-6-1.8-7.5-2.6-7.9-4.5-.7-2.8-7.6-6.7-10.9-6.2-1.6.2-2.3 1.1-2.5 3-.2 1.6-.4 2.8-.6 2.8-.1 0-2.5-.6-5.2-1.4-2.7-.7-8.7-2.2-13.4-3.2-5.7-1.2-10.3-2.9-13.9-5.2C222.5 77 208 72 202.6 72c-4.8.1-7.6 1.9-7.6 4.8 0 2.2.4 2.1-18.1 3.6l-5.5.4 1.4-6.1c1.2-5.3 2.7-11.5 3.7-15.3.4-1.6 7.5-.5 7.5 1.3 0 .8 1.5 3 3.4 4.8 3 3.2 3.8 3.5 9 3.5 3.3 0 8.1-.9 11.4-2.1 3.1-1.2 6.7-2.3 8-2.6 1.2-.3 2.2-.9 2.2-1.4 0-.5 1.3-.9 2.9-.9 1.7 0 3.3-.5 3.6-1 .8-1.2 7.1-4 9.2-4 1.1 0 1.2 1 .7 5-.6 4.9-.6 5 2 5 1.4 0 2.6-.4 2.6-.9s.9-1.1 2-1.4c1.5-.4 2-1.4 2-3.6 0-1.7.4-3.1.8-3.1 1 0 3.7-11.9 2.8-12.7-.3-.3.8-1.4 2.4-2.4 3.4-2.1 4.1-6.6 1.5-9.3-2.2-2.1-7.8-3-10.5-1.6-3.7 2-13.2 4.1-15.4 3.4-1.1-.4-4.2-2.2-6.9-4-2.6-1.9-5.1-3.4-5.6-3.4s-.6-2-.3-4.5c.6-6.1-.9-7.9-6.2-7.2-2.2.3-4.2 1.1-4.4 1.6-.6 1.7-4.2 1.3-4.2-.4 0-2.5-4.5-1.8-6 1-.7 1.4-1.7 2.5-2.2 2.5-.4 0-.8 1.6-.8 3.5 0 2.8.5 3.8 2.3 4.5 1.8.7 1.5.9-2 .9-3.9.1-4.3-.1-4.3-2.3 0-1.3.9-5.3 2-8.8 2.5-8 2.5-10.3 0-12.8-1.9-1.9-3.9-2.2-8.7-1.3zM185 9c.6 1.1.3 3.6-.9 7.6-1 3.2-2.2 8.6-2.6 11.8-.6 5.4-.5 5.8 1.2 5.2 3.9-1.6 7.4-1.8 8.8-.6 1.2 1 1.6.9 2.2-.6.3-1.1 1.1-2.2 1.6-2.5 1.8-1.2 0-3.8-2.2-3.2-3 .8-3.7-2.1-1.2-4.8 1.2-1.3 2.1-2.8 2.2-3.3 0-.6.4-.2.8.8.9 2.4 6.1 3.3 7.6 1.4 1.5-2.2 4.6-3 6.1-1.7 1.8 1.5 1.8 4.9 0 4.9-2.5 0-2.8 1.8-.6 4 1.1 1.1 2.2 2 2.5 2 .3 0 2.7 1.6 5.4 3.5 2.6 1.9 5.3 3.5 5.9 3.5.6 0 1.2.5 1.4 1.1.4 1.1 14.9-1.9 18.4-3.9 2.2-1.2 7 .3 7.9 2.6.8 2.2-3.2 5.6-5.4 4.6s-9.2-.6-10.6.6c-.6.5-2 1.1-3.1 1.3-1 .2-3 .9-4.4 1.4-1.4.6-3.8 1.3-5.5 1.7-1.6.3-4.1.9-5.5 1.2-1.4.4-3.8.8-5.5 1-3.5.4-14.6 4.1-15.8 5.3-.4.4-.5 1.6-.1 2.5.6 1.5 1.5 1.7 5.3 1.3 7.5-.8 10.4-1.5 11-2.5.3-.6 2.6-1.5 5.1-2.2 2.5-.7 5-1.5 5.5-1.8.6-.4 1.9-.8 3-.9 1.1-.2 2.4-.8 2.9-1.3.6-.6 1.7-1 2.6-1 .8 0 3.6-1.1 6.2-2.5 5.8-3.1 7-3.1 8.4 0 .9 1.8.9 3-.1 4.8-.6 1.2-1.1 3.1-.9 4 .1.9-.2 1.5-.7 1.1-.9-.5-1 0-1.3 4.3-.2 3.2-1.1 3.6-1.4.6-.1-1.4-.7-3.2-1.3-3.9-.6-.7-.8-1.8-.4-2.4.3-.5.3-1-.1-1-1.5 0-12.9 4.3-14.2 5.3-.7.6-2.5 1.2-3.9 1.3-1.4.2-2.9.8-3.3 1.4-.4.6-1.1 1-1.6.9-.5-.1-3.1.8-5.9 2-2.7 1.3-7.4 2.5-10.3 2.8-5 .6-5.4.4-8.7-3-1.9-2-3.5-4.5-3.5-5.6 0-1.7-.5-2-2.9-1.5-1.7.4-3.2.1-3.6-.6-1.1-1.7 1.4-5.8 3.8-6.2 1.1-.2 2.3-1 2.7-1.8.4-.8 1.7-3.3 2.8-5.6l2.1-4-2.8.2c-1.6.1-3.8.7-4.9 1.3-1.1.6-2.7.8-3.6.5-1.1-.4-1.6.4-2.1 3.3-.4 2.1-.9 4.5-1.3 5.3-.5 1.4-2 8.1-4.1 19.1-.5 2.6-1.9 7.7-3 11.4-1.2 3.7-2.1 7.9-2.1 9.3 0 5.4-1.9.5-2.4-6.3-.3-3.9-.8-9.1-1.2-11.7-.6-4.4.8-12.6 2.6-15.3.8-1.2 2.8-8.2 3.3-11.5.3-2.4.1-2.5-3.9-2.2-3.9.4-4.3.7-5 3.5-.3 1.8-1.1 3.5-1.6 3.8-.5.3-.9 3-1 5.8 0 4.8-.3 5.5-2.9 7-1.6.9-3.4 3-4 4.9-.6 1.8-1.5 3-2 2.7-.5-.4-.9.1-.9.9 0 2.3-3.8 2-4.5-.4-.3-1.1-1.2-2.6-2-3.3-1.6-1.6-6.5-12.2-6.5-14.1 0-.7-.7-1.9-1.5-2.6-.9-.7-1.3-2-1.1-2.7.3-.8 0-2.6-.7-4.1-.8-1.7-1.3-6.4-1.3-12.4.1-9.4 0-9.8-2.4-11-1.3-.7-3.2-2.1-4.2-3.1-1-.9-2.5-1.7-3.3-1.7-.7 0-1.9-.8-2.4-1.8-.9-1.4-1-1.3-1.1 1 0 2.1.5 2.8 2 2.8 2.4 0 2.8 4.1.5 6-1.7 1.4-3.3.1-5.9-4.7-3.5-6.9-.9-11.3 6.6-11.3 2.6 0 5 .4 5.3 1 .3.5 1.5 1 2.6 1 1 0 2.7.9 3.6 2 1 1.1 2.5 2 3.4 2 .9 0 2.4.8 3.3 1.9.9 1 3 2.1 4.7 2.5 1.6.3 2.9 1.2 2.9 2 0 1 .6 1.3 1.5 1 .8-.4 1.5-1.6 1.5-2.8 0-1.2.5-2.7 1.2-3.4 1.4-1.4 9.8-1.6 9.8-.2 0 .5 1.4 1 3 1 2.3 0 3.3.6 4.3 2.7.7 1.6.8 2.8.2 3-.6.2-.9 2.9-.7 6.2.3 5.4.2 5.9-2 6.6l-2.3.8 2.4.4c3.4.7 7.1-.5 7.1-2.3 0-.8.7-2.8 1.5-4.3.8-1.6 2-7 2.6-11.9 1.1-8 1.5-9.1 3.3-9.4 2.9-.5 4.5.1 5.6 2.2zm-1 37.5c-1.5 1.8-5 2-5 .2 0-2 1.4-3.4 3.5-3.9 2.4-.4 3.2 1.7 1.5 3.7zm25.8 5.2c-1 .2-1.8.9-1.8 1.4 0 .5-.9.9-2.1.9-1.1 0-2.9.5-4 1.1-1.1.5-3 .9-4.2.7-1.6-.3-.5-1 3.8-2.5 3.3-1.1 6.9-2.1 8-2.1 1.6 0 1.7.1.3.5zm4.1 24.3c4.9 1.6 10.9 4.1 13.3 5.6 6.1 3.9 14.7 12.3 16.9 16.5 1.5 3.1 2.2 3.6 4.4 3.2 3-.6 2.9-.1.9-5.9-1-2.9-1.2-5-.6-5.6 1.1-1.1 7.5 1.3 8.7 3.2 1.4 2.3 5.4 28.4 6.1 39.7.6 9.4.5 11.3-.7 11.3-2.5 0-3.6-1.4-4.3-5.3-.6-3.2-1-3.7-3.5-3.7-2 0-3.1.7-3.9 2.5-.6 1.4-1.6 2.5-2.2 2.5-.6 0-1.5-1.1-2-2.5-.6-1.5-1.7-2.5-3-2.5-1.1 0-2-.7-2-1.5 0-.9.9-1.5 2.4-1.5 2.9 0 3.6-3.4 3.5-16l-.1-8.5-1.3 5.2c-2 8.3-5.7 13.5-12.9 18.4-6.4 4.3-6.5 4.5-5.9 8.1.5 3.7.5 3.8-2.6 3.8-2.7 0-3.1-.3-3.1-2.6 0-1.5-.8-3.2-1.7-3.9-1.3-1-1.5-1.6-.6-2.7 1.9-2.2-3.9-39.2-7.4-48.1-1.4-3.3-2.1-3.9-7.2-5.2-9.1-2.5-10.4-3.9-6-6.2 3.4-1.8 4.6-1.7 14.8 1.7zM86.6 86.8c.6.4 3.2 9.7 5.7 20.6 4.7 19.9 6.7 25.5 6.7 18.4 0-5 2.3-7.2 7.1-6.5l3.7.5-1.4-5.1c-.7-2.8-1.1-5.4-.8-5.9.8-1.3 7.4-.9 7.8.4.2.7 1.1 4.7 2 8.8 2.3 9.6 6.5 22.1 8.1 23.9 1.1 1.1 1.5.7 2.4-2.4 1.4-5 .1-11.3-5-23.8-5.1-12.8-5.5-13.4-7.9-14.2-2.8-.9-2.5-3.3.6-4.1 3.8-1 8.7.7 9 3.1.1 1.1.9 4 1.8 6.5l1.5 4.5v-7.6c.1-6.3.4-7.9 2.1-9.4 1.8-1.6 2.7-1.7 6.1-.8 5.3 1.4 31.8 1 34.6-.5 1.9-1 2.6-.9 4.9 1.1 4.4 3.8 2.8 5.3-6.7 6.1-4.5.4-8.6.9-9 1.2-.4.2-.2 2.1.5 4.2.7 2 1.9 6.7 2.6 10.5.7 3.7 1.6 6.9 2 7.2.5.3 2.2-.6 3.8-2 5.4-4.6 5.8-2.7.6 3.3-2.7 3.2-3.5 4.9-3.2 7.3l.3 3.2 4-5.8c5.8-8.4 5.8-4.6 0 7.2-3.9 8.1-4.9 9.4-6.8 9.1-1.8-.2-2.3-1.2-3-5.6-.8-4.6-1.1-5.2-3.3-5.2-2.9 0-3.1-1.4-.3-3.3 1.9-1.4 2-1.7.6-6.3-.7-2.6-1.6-4.3-1.9-3.8-1.3 1.9-3.8 13.3-3.8 16.8 0 5.2-2.6 4.7-5-1-1.9-4.3-2.2-4.6-4.8-3.8-1.5.4-4 .8-5.7.9-2.7.2-3.1.6-3.6 4-1 5.9-6 8.9-11.4 6.8-1-.3-3-3.3-4.6-6.7-2.8-6-2.9-6-2.9-2.5 0 4.4-1.5 5.9-5.6 5.9-3.7 0-6.8-3.2-7.9-8-1-4.4-3-5.2-2.1-.9 2.5 12.8 2.9 17.1 1.5 18-2.8 1.8-3.8.8-6-6.1-1.3-3.9-2.6-7-2.9-7-.4 0-3.1 1.7-6.1 3.8-4.9 3.4-5.4 4.1-5.7 8-.4 4.8-1.4 5.3-3.1 1.6-1-2.2-1.6-2.5-3.9-2.1-1.6.3-3.4.2-4.1-.3-1.5-.9-.6-3 1.2-3 3.7-.1 3.7-1.7-.1-10.1-5.5-12.3-8.1-16.9-9.7-17.6-4.1-1.5.4-7.3 5.8-7.3 3.7 0 9 2.8 8.4 4.4-.5 1.2 4 24.6 4.9 25.5.2.2 2.4-1.2 5-3.2 2.5-2 5.1-3.8 5.7-4 .8-.3-.1-4.2-2.6-12.1-4.5-13.5-9.7-31.5-9.7-33.3 0-1.9 7.3-3.1 9.6-1.5zm185.1 2.6c2.5 2.1 2.8 3.1 3.1 10 .5 8.4-.6 9.9-5.3 7.8-2.4-1.1-3.4-4.3-5-15.5-.7-4.6-.7-4.7 1.8-4.7 1.4 0 3.8 1.1 5.4 2.4zm28.3 4.3l3 2.8-1.5 8c-.8 4.4-2.6 16.5-3.9 26.9-1.4 10.3-2.7 19.1-3 19.4-.3.3-1.6 0-2.9-.5-1.7-.8-3.2-3.3-5.1-8.7-1.6-4.2-3.1-7.8-3.6-8.1-.4-.2-1 1.7-1.3 4.3-.7 6.2-2.3 10.2-4.1 10.2-1.1 0-1.5-2.8-2.1-13.5-.4-7.5-1-13.3-1.3-13-.3.3-1.1 4.7-1.8 9.8-1.5 12.1-3.1 17.7-4.9 17.7-1.3 0-1.5-2.6-1.5-15.8 0-8.6-.3-16.7-.6-18-.5-1.8-.2-2.2 1.5-2.2 1.2 0 3.1.4 4.1 1 1.4.8 1.9.5 2.3-1.1.4-1.6 1.1-1.9 2.9-1.4 4.9 1.4 7.2 4.1 10.2 12.3 1.7 4.5 3.4 8.2 3.8 8.2.5 0 .8-2.2.8-4.8 0-2.6.7-10.2 1.5-16.7.8-6.6 1.5-13.7 1.5-15.8 0-4.6 1.7-4.8 6-1zm-91.2 1.9c3 2.1 2.2 3-3.9 4.4l-5 1.2.5 3.9c.3 2.2.9 5.7 1.2 7.9.6 4.4 1.5 4.7 5.8 2.5 3.6-1.9 5.6-1.9 5.6-.1 0 1.6-4.3 5-7.8 6.1-2.3.7-2.3.9-1.7 9.1.5 7 .4 8.4-.9 8.4-.8 0-1.7-1.2-2-2.8-.3-1.5-1-5.3-1.6-8.5-.6-3.1-1.6-5.7-2.1-5.7s-.9.6-.9 1.4c0 .8-1.1 2.7-2.4 4.3-2.4 2.7-2.4 2.8-5.9 1.1-2.8-1.3-3.8-2.7-5.2-6.9-1-2.8-1.8-7.5-1.9-10.3-.1-4.6.1-5.1 2.2-5.4 2.7-.4 7.8 1.4 10.4 3.6 1.6 1.3 1.6 1.1.7-2.4-.6-2.2-2-4.9-3.1-6.1-2.7-3-1-5.3 4.1-5.4 2-.1 5-.5 6.6-.9 4.5-1.2 4.9-1.1 7.3.6zm5.6 45.3c1.1.4-3.9 1.2-12 1.9-7.7.7-15.4 1.6-17.3 2.2-3.6 1-4.7.8-3.7-.8.5-.9 13.5-2.7 24.6-3.5 2.5-.2 5-.4 5.5-.5.6 0 1.8.3 2.9.7z"/><path d="M151.4 16.8c-3.4 2.3-1.5 7.1 3.5 8.7 1.7.5 2.1.2 2.1-1.7 0-2.9-4.1-8.1-5.6-7zM140.9 30.2c-.3 7.9 0 10.5 1.4 13.7.8 1.9 1.3 4 1 4.7-.2.7.9 3.3 2.5 5.8l2.9 4.7 1.3-5.6c.7-3 1.7-5.5 2.2-5.5.4 0 .8-.9.8-1.9 0-2.1-2.2-3.3-4.5-2.5-2.7 1.1-4.5-1.4-3.4-4.6 1.1-3.1 3.7-4.6 5.3-3 1.6 1.6 4.6 1.2 4.6-.6 0-2-2.8-4.3-5.4-4.4-1 0-3.4-.9-5.2-2.1l-3.4-2.1-.1 3.4zm4.4 2.5c.3.5-.1 1.4-.9 2.1-1.2 1.1-1.4.9-1.4-.8 0-2 1.4-2.7 2.3-1.3zm3.7 15c0 1-.4 2.4-.9 3.1-.7 1.1-1 1-1.5-.3-1-2.8-.7-4.5.9-4.5.8 0 1.5.8 1.5 1.7zM203.2 34.2c-.7.7-1.2 1.8-1.2 2.6 0 .7-.4 1.1-.9.7-.5-.3-1.5 1.1-2.2 3-.7 1.9-1.7 3.5-2.1 3.5-.4 0-.8.5-.8 1.1 0 .7.7.8 1.8.4.9-.4 2.6-.8 3.7-1 1.9-.2 9.7-2.2 12.3-3 1.4-.5-.1-2.2-5.2-6.3-3.3-2.5-3.8-2.6-5.4-1zm5.5 5.9c-.7.4-2.8 1-4.7 1.3-3 .6-3.3.5-1.9-.6.8-.7 1.8-2.1 2.2-3.1.7-1.7.8-1.7 3.1 0 1.6 1.2 2 2 1.3 2.4zM224.4 95.5c.3 3.8 1.1 12.8 1.7 20 .6 7.1 1.2 13.2 1.5 13.4.8.9 3.4-2.3 5.9-7.2C238.8 111 236 99 226 90.5l-2.3-2 .7 7zM255 123.7c0 1-.3 2.8-.6 4-.5 1.7-.2 2.3 1 2.3s1.6-.9 1.6-3.4c0-1.9-.4-3.8-1-4.1-.5-.3-1 .2-1 1.2zM145.3 109.2c1.3 10.1 1.8 10.7 5.2 6.3 2.7-3.7 2.8-3.8 1.3-8.4-1.2-4-1.8-4.6-4.4-4.9l-3.1-.3 1 7.3zM136.5 120.9c.6 8.5 1.5 11 3.3 8.9.8-1 .5-3.2-1.4-8.8l-2.4-7.5.5 7.4zM106.6 128.7c.4 2.1 1.2 5.1 1.9 6.8l1.3 3 .1-4.2c.1-4.7-1.3-9.3-2.9-9.3-.7 0-.9 1.3-.4 3.7zM148.1 127.8c-1.4 2.6-.7 4.2 1 2.5.6-.6.9-1.9.7-2.9-.3-1.7-.5-1.7-1.7.4zM188.9 116.7c-1.1 2.9-.1 9.3 1.5 9.6 1.8.4 3.4-5.6 2.4-9.1-1-3.9-2.5-4.1-3.9-.5zM256 17.5c-.8 1-1 2.8-.5 5.3 1.9 9.8.7 45.2-1.6 45.2-1.3 0-2.1 5.9-1.4 10l.7 4h5c2.8 0 5.5-.6 6.3-1.4.9-.8 1.7-6.1 2.5-15.2.6-7.6 1.3-14 1.5-14.3.3-.2.5.3.5 1.3 0 .9 1.1 4.1 2.4 6.9 1.5 3.2 2.6 7.9 2.9 12.1.6 7.8 1.2 8.6 7.5 8.6 3.9 0 4.5-.3 5.5-3 1.1-2.9 2.7-4.1 2.7-2 0 .5 1.4 2.3 3 4 1.7 1.7 3 3.4 3 3.9 0 .4 2.4 1.1 5.2 1.4 5.3.7 8.7 0 16.5-3.5 2.4-1 5-1.8 5.8-1.8.8 0 1.6-.6 1.6-1.3.1-1 1 4 3.7 22.3l.7 4.5h10.9l1.1-5.5c.6-3 1.7-6.6 2.4-7.9l1.3-2.4 1.9 3.9c5 10.1 6.1 11.4 9.6 11.4 1.8 0 5.1-.7 7.4-1.7l4.1-1.6-.4-5.1c-.2-2.8-1.2-6.8-2.2-8.8-1.2-2.4-1.8-6.4-1.9-12l-.2-8.3 4.3-.3c3.7-.3 4.2-.6 4.2-2.8 0-1.6-.8-2.8-2.4-3.5-2.3-1.1-2.3-1.2-.5-3 1-1 1.9-2.6 1.9-3.4 0-.8.9-1.5 1.9-1.5 3.5 0 4.2-5.7 1.2-10.6-1.6-2.6-2.8-3.3-6.7-3.9-3.2-.4-5-.3-5.2.4-.2.6-2 1.8-4 2.7-2 .9-4.5 2-5.4 2.5-1 .5-2.4.9-3.2.9-2.4 0-6.6 2.2-6.6 3.5 0 1.1-7.6 3.6-10.8 3.4-.9 0-3.7-1.6-6.2-3.5s-5.3-3.7-6.2-4c-1.3-.5-1.5-1.4-1.1-4.1.4-2 0-4.4-.8-6-1.2-2.2-1.8-2.4-5.4-2-2.2.3-4.1 1.1-4.3 1.6-.2.6-1.2 1.1-2.3 1.1-1.5 0-1.7-.5-1.2-3.2.5-2.3.2-3.4-1.2-4.5-2.7-1.9-11.1-1.5-18.5 1-5.7 2-6.5 2.6-6.8 5.1-.3 2.6-.2 2.7 3.2 2.5 1.9-.2 3.8 0 4.2.3 1.1 1.2-.6 5.8-2.1 5.8-.9 0-1.5.9-1.5 2.1 0 1.8-.2 1.9-1.5.9-.8-.7-1.5-2.1-1.5-3.1 0-.9-.6-2.4-1.4-3.1-.7-.8-1.9-3-2.7-5.1-.7-2-1.7-3.7-2.1-3.7-.4 0-.8-.9-.8-2s-.6-2.3-1.3-2.6c-.8-.3-2-2-2.7-3.8-1-2.7-2-3.5-4.9-4-5.2-.8-5.7-.8-7.1.9zm10 5c.7 1.9 2 3.7 2.7 4 .8.2 1.2.9.9 1.4-.4.5 0 1.5.7 2.3.7.7 1.9 2.9 2.7 4.8.8 1.9 1.8 3.8 2.4 4.2.5.3 1 1.5 1.1 2.6.1 1.1.7 2.7 1.4 3.5.7.9 1.3 2.4 1.4 3.5.2 3.1 3.6.8 4.4-2.9.3-1.6 1.2-2.9 1.9-2.9.8 0 1.6-1.2 2-2.8.4-1.5 1.2-3.7 2-4.8 1.2-2.1 1.1-2.2-2.2-2.9-1.9-.3-4.5-.3-5.7.1-4.5 1.3-.2-1.4 4.8-3.1 13.2-4.4 19.3-2.1 13.6 5-1.5 1.8-1.5 1.9 0 .7 1.4-1 1.8-1 2.3.4.4.9.9 1.4 1.2 1.1.3-.3 1.7-.2 2.9.3 1.9.7 2.5.5 3-.9.8-2.6 4.5-3.4 6.2-1.3 1.5 2 1.3 4.7-.4 4.7-3.3 0-1.8 3.3 2.8 6 .9.5 4.1 2.6 7 4.7 5.6 3.8 8.5 4.2 14.2 1.9 1.5-.6 3.1-1 3.5-1 2.1.3 3.1-.3 2.6-1.5-.6-1.5 2.9-3.2 5.7-2.8.9.2 2.2-.4 2.9-1.3.7-.8 1.8-1.5 2.5-1.5 1.8 0 7.5-3 7.5-3.9 0-.5 1.4-.6 3.2-.2 5.6 1.2 8.9 10.1 3.7 10.1-1 0-1.9.7-1.9 1.5s-.9 2.4-2 3.5c-2 2-2.8 6-1.2 6 .5 0 1.7.7 2.8 1.5 1.8 1.5 1.6 1.6-2.4 1.3-3.8-.3-4.3-.1-4.9 2.1-1.2 4.8 0 19.5 1.8 21.7.5.6 1 2 1.2 3.2.2 1.2.6 2.5 1 2.8.4.4.7 1.8.7 3 0 2-2.2 3.6-5.2 3.9-.3 0-1 .3-1.4.7-1.8 1.9-5.6.2-5-2.3 0-.3-1.1-2-2.7-3.8-1.5-1.8-2.5-3.7-2.1-4.2.3-.5.1-.9-.4-.9s-1.6-2.4-2.4-5.3c-1.5-4.9-1.6-5.1-2.5-2.7-2.3 5.7-3.6 9.8-4.7 15-1.2 5.4-1.3 5.5-4.6 5.5-3.5 0-3.5 0-4.3-5.5-.4-3-1-7.1-1.1-9-.6-5.6-1.7-12.4-2.2-13.1-.6-1-4.4.1-4.4 1.2 0 .5-.7.9-1.5.9s-3.4.8-5.8 1.8c-2.3 1-5.5 2.3-7.2 2.8-3.6 1.1-10.5.7-10.5-.6 0-.5-1.3-2.3-3-4-1.6-1.7-3-3.5-3-4 0-.6-1.3-1-2.8-1-2.2 0-3 .7-3.9 3-.8 2.2-1.8 3-3.5 3-4 0-4.8-1.3-5.3-8.8-.3-4.3-1.2-8.3-2.1-9.7-.9-1.4-1.3-2.5-1-2.5.4 0 0-1-.8-2.2-.9-1.2-1.6-3.2-1.6-4.3-.1-2-2.2-5.5-3.4-5.5-.3 0-.6.9-.6 2s-.3 2-.7 2c-.5 0-.8 1.7-.9 3.7 0 2.1-.3 6.9-.6 10.8-.3 3.8-.6 8.7-.7 10.8-.1 2.3-.5 3.6-1.1 3.2-.5-.3-1 .1-1 .9 0 1.1-1 1.6-3.4 1.6-2.9 0-3.4-.4-3.9-2.9-.6-3.1.1-7.1 1.3-7.1.8 0 3.7-20.6 3.2-23-.1-.8-.2-2.5-.2-3.8v-4-7.3c0-3.1-.4-6.8-1-8.4-1.4-3.6 0-5.3 3.8-4.7 2.2.3 3.2 1.2 4.2 3.7z"/><path d="M293.3 46.2c-6.2 12.7-7.3 15.6-7.9 20.4l-.5 4.9 1.7-3.3c1.1-2.2 2.4-3.2 3.9-3.2 2.3 0 3.5-1.7 3.5-5 0-1 .4-2 .8-2.2 1-.4 8.2-13.5 8.2-14.9 0-.5-1-.9-2.3-.9-1.3 0-2.8-.5-3.3-1-.7-.7-2 1-4.1 5.2zm5.7-1.5c0 1.4-5.5 11.3-6.2 11.3-1.3 0-.9-1.6 1.8-6.9 2.4-4.5 4.4-6.5 4.4-4.4zm-7 14c0 2.4-1.7 4.9-2.6 4-.4-.4-.1-1.8.6-3.2 1.6-3 2-3.1 2-.8zM361.5 47.9c-.3.6-1.7 1.1-3.1 1.1-2.2 0-2.4.3-1.8 2.2 1.2 3.9 2.8 3.9 4.7.2 1.7-3.2 1.8-6.1.2-3.5zM308.1 52.2c-1.7 2.3-3.1 4.7-3.1 5.4 0 .7-.6 1.4-1.2 1.7-.7.2-1 .8-.6 1.2.4.4 1.2.3 1.9-.1s2.2-.9 3.4-1c2-.2 4.5-.8 10.2-2.1 3-.8 3.1-.9 1.4-2.8-1.6-2-7.6-6.5-8.5-6.5-.2 0-1.8 1.9-3.5 4.2zm6.9 1.2l2.4 1.4-3.9 1.1c-5.6 1.5-5.8 1.4-3.8-1.4 2.1-2.8 2.1-2.8 5.3-1.1zM346.8 55.6c-.3.3-1.6.7-2.9.8-1.3.2-3.7.8-5.2 1.5-1.6.6-3.2 1.1-3.6 1.1-.5 0-1.4.6-2 1.4-1 1.2-.8 1.7.6 2.5 1.5.7 3.4.2 8.2-2.2 6.2-3 6.4-3.1 7.8-1.2.9 1.3 1.2 3.1.8 5-1.1 5.4-.5 12.8 1.4 16.3.6 1.1.8 2.8.5 3.6-.3.9-.2 1.6.4 1.6.6 0 .9-4.3.9-10.8-.1-6.5.4-11.5 1.1-12.9 1.6-2.9.5-5.3-2.3-5.3-1.3 0-2.7-.5-3-1-.7-1.1-1.9-1.3-2.7-.4zM320.7 63.1c-1.5.4-4.2 1-6 1.3-7.9 1.3-14.7 3.8-14.7 5.4.1 2.5 2 3.4 6.1 2.9 7.6-.9 10.1-1.4 10.8-2.4.3-.5 2.7-1.5 5.3-2.3 4.6-1.5 4.7-1.5 3-3.6-1.4-1.7-2.3-2-4.5-1.3zm-2 3.5c-.3.3-1.2.4-1.9.1-.8-.3-.5-.6.6-.6 1.1-.1 1.7.2 1.3.5zm-3.7 1.3c0 .8-2.1 1.4-9.2 2.7-2.9.4-3.1.4-1.3-.7 3.4-2.2 10.5-3.5 10.5-2z"/><path d="M338.3 69.7c-2.2.4-3.1 3.4-2.3 6.8 1.4 5.7 1.8 6.8 1.9 5.5.1-.8.7-2.6 1.4-4 1.7-3.2 2.9-9.1 1.9-8.9-.4.1-1.7.4-2.9.6zM316.1 122.9c-1.4.9-1.2 13 .5 38.2.6 8.5.6 8.6-2.1 11.2-2.4 2.1-4.1 2.7-11.2 3.2-8 .7-9.3 1.4-7.5 4.1 2.2 3.3 5.3 3.7 26.1 2.9 11.3-.4 20.9-.9 21.3-1.1.4-.3-.7-3.5-2.3-7.2-6.5-14.5-8.1-31.5-3.9-42.7 3.9-10.5 4.7-9.5-8.1-9.5-6.3 0-12 .4-12.8.9zM27.3 129.7c-1.3.2-2.3.8-2.3 1.3 0 .4 1.6 4.1 3.5 8.1 6.3 13.5 6.7 28.1 1.2 41.8-1.4 3.5-2.3 7-2 7.8.5 1.4 3.4 1.5 22.6.8 22.8-.7 26.7-1.3 29.8-4.1 4.3-3.9.5-7.7-5.5-5.5-4.2 1.7-12.7 1.3-16.6-.7-1.9-.9-4.1-2.9-4.8-4.4-.8-1.7-1.7-10.6-2.3-23-.5-11.2-1.2-20.9-1.4-21.6-.3-.8-3.2-1.2-10.2-1.1-5.4.1-10.8.4-12 .6z"/><path d="M135 153.1c-6.3 1.7-16 4.1-21.5 5.4-5.5 1.3-13.9 3.5-18.8 4.9-4.8 1.4-8.9 2.6-9.2 2.6-.7 0 .2 12.1 1 14.2 1.1 2.9-3.1 9.6-6.8 10.7l-3.2.9 3 .1c4.8.2 5.7 1.3 5.2 6.2s-3.3 18.4-4.9 24.1c-.7 2.2-.8 8.3-.4 16 .7 14.3.8 15.2 3.1 23.8 1 3.6 2 7.7 2.2 9.3.3 1.5.9 3 1.4 3.3.5.3.9 1.2.9 2.1 0 2.2 8.6 15.8 14.9 23.3 6.7 8.1 18.1 19 19.8 19 .7 0 1.3.4 1.3.8 0 1.8 21 13.2 28.8 15.6 2.1.7 2.2.5 2.2-4.9 0-5.1.2-5.6 1.9-5 16.5 5.2 35.1 6.9 49.9 4.5 47.3-7.6 83.2-47.2 83.2-91.5-.1-15.8-4.1-36.9-11.2-58.9l-4.2-12.9-6.1-2.8c-8.5-4-19.5-5.9-39-6.9-26.8-1.5-49.3-1.1-65 .9-7.7 1-14.3 1.7-14.7 1.4-.5-.2-.8-2.4-.8-4.9 0-2.4-.3-4.4-.7-4.3-.5 0-6 1.4-12.3 3zm94 10.9c24.5 2.8 31.5 4 34.7 6 2.5 1.5 3.4 3.3 6.2 13.4 5 18 7.1 30.6 7.7 48.1.8 19.6-.4 25.4-7.7 40.3-11.3 22.8-34.5 40.4-60.7 46.2-12 2.7-30.2 2.7-40.5.1-19.1-4.9-31.5-11.9-45.3-25.6-8.3-8.3-10.8-11.5-14.7-19.1-6.8-13.3-8.7-22.3-8.7-41.4 0-23.8 4.2-52.8 8-56.2 1.9-1.6 24.6-7.4 38.2-9.8 24.2-4.3 55.9-5.1 82.8-2z"/><path d="M231.9 178.8c-3.5 1.7-3.8 4.8-.9 8.5 2.8 3.5 2.5 4-1.4 3.3-4.2-.8-6 1.1-5.1 5.3 1 4.5 3.6 6.3 8.7 5.9 4.2-.3 4.3-.2 4 2.4-.2 1.6.1 2.8.7 2.8s1.3-1.2 1.7-2.8c.3-1.5.7-3.3 1-4 .4-1.5 3.8-1.6 6.4-.2 2.5 1.4 5-2.1 5-7.1 0-4.7-2.1-6.6-5.6-5-4.9 2.2-5.7 1.6-5.1-3.9.4-3.3.2-5.2-.6-5.7-1.9-1.2-5.6-1-8.8.5zM183.5 179c-1.2.4-2.7 1.5-3.4 2.4-1.2 1.5-1.2 2.2.5 5.4 1 2 2 4.1 2.2 4.6.3.4-.9.5-2.5.2-4.4-1-6.6 1.8-5.2 6.8 1.3 4.6 4.1 5.9 8.8 4 4.5-1.9 4.4-1.9 3.7 2.1-.4 2-.3 3.5.2 3.5 1.2 0 2.2-2.5 2.2-5.6 0-2.9 2.3-4.1 5.3-2.7 3.1 1.4 6.4-.3 7.1-3.8 1.2-6-2.9-10.2-6.9-7.3-3.7 2.7-4.8 1.8-4.2-3.5.8-6.6-1.7-8.6-7.8-6.1zM131.5 182.2c-1.1.6-2.3 1.6-2.8 2.2-1 1.5.1 5.5 2 7.5 1.6 1.5 1.4 1.6-2.1 1.9-4.7.4-6.5 3.5-4.6 8.1 1.5 3.7 4.2 4.7 8.1 3 3.8-1.5 5.6-.1 4 2.9-.7 1.3-.7 2.3-.2 2.7 1.2.7 3.6-3.4 3.3-5.6-.4-2.2 2.3-3.1 6.4-2.3 3.2.6 3.5.4 4.8-2.7 1.6-3.8 1.1-8.5-1-9.3-.7-.3-2.9.1-4.9 1-3.9 1.6-3.8 1.8-3.9-5.6-.1-4.4-.2-4.5-3.6-4.7-1.9-.2-4.4.2-5.5.9zM187 219.1c-7.4.5-25.6 1.6-40.5 2.5-41.7 2.5-40.5 2-40.5 15.8.1 32.3 23.5 62 57.6 73.2 16.8 5.4 34.8 5.4 52.9-.3 33.5-10.5 56.5-40.7 56.5-74.2 0-10.5-1.1-13.9-5-15.7-3.2-1.5-62.7-2.4-81-1.3zm-14.7 17.5l-.8 4.9-6 .3c-3.3.2-6.4.7-7 1.2-.5.4-4 .6-7.7.3l-6.8-.6-1-3.6c-1.4-4.9-1.3-7.1.4-7.1.7 0 2.1 1 3 2.2l1.6 2.3 2.5-3 2.6-3 1.6 2.2c.8 1.3 2.1 2.3 2.8 2.3.7 0 2-1 2.9-2.3l1.6-2.2 1.6 2.2c1.6 2.3 4.4 3.1 4.4 1.4 0-.5.7-1.7 1.6-2.6 2.5-2.5 3.6-.5 2.7 5.1zm49.4-2.6c1.2 1.9 3.2 4.4 4.3 5.5 1.1 1.2 2.7 4.7 3.5 8 1.6 5.9 1.4 8.5-.4 8.5-2 0-12.1-7.6-12.7-9.5-.4-1.1-2-3.5-3.5-5.3-3.5-3.9-3.7-6.4-.7-9.2 3.2-3 6.8-2.2 9.5 2zm-29.3 8.2c1.7 24.4 2.7 62.1 1.7 63.1-.6.6-1.4.8-1.7.4-.4-.4-1.1-11.4-1.5-24.4-.4-13.1-1.1-29.3-1.4-36.1-.6-10.4-.5-12.2.8-12.2 1.1 0 1.6 2 2.1 9.2zm-26.6 3.5c.2 1.4-.4 2.6-1.7 3.3-1.4.7-2.1.7-2.1 0 0-.5-.9-1-2-1-1.3 0-2-.7-2-1.9 0-3.7 7.3-4.1 7.8-.4zm4.6-1.1c1 2.6.7 3.4-1.4 3.4-1.5 0-2-.7-2-2.5 0-2.8 2.4-3.4 3.4-.9zm-20.7.9c.7 1.9.5 2-2.4 2.9-1.8.6-2.3.3-2.3-1.2 0-3.3 3.5-4.6 4.7-1.7zm5.1-.9c2.3.7 3 2.8 1.2 3.9s-5-.6-5-2.6c0-2.1.3-2.2 3.8-1.3zm-1 7.1c.2 1.6-.3 2.2-2 2.5-3.2.4-7.8-.3-7.8-1.2 0-1.9 3.2-3.8 6.2-3.6 2.5.1 3.4.6 3.6 2.3zm8-.1c.3 2.3-2.7 3.8-5.4 2.7-1.5-.5-1.9-3.5-.7-4.7 1.5-1.5 5.8-.1 6.1 2zm9.9-1.1c.8 2.2.1 2.6-4.6 2.8-3.3.2-4.1-.1-4.1-1.4 0-2 1.4-2.7 5.3-2.8 1.6-.1 3 .5 3.4 1.4zm-3.7 5.9c0 2.9-1.3 3.4-6.3 2.8-5-.6-4.8-3.4.3-4.3 5.8-1 6-1 6 1.5zm4.8.4c.3 1.7-.2 2.2-1.7 2.2-1.6 0-2.1-.6-2.1-2.6 0-3.3 3.3-3 3.8.4zm66.2-1.3c0 .8-1.2 2.2-2.7 3-1.6.9-1.9 1.3-.8 1 4.5-1.6 5.5-1.7 5.5-.6 0 .6-1.7 1.9-3.9 3-3.3 1.7-5 4.2-5.1 7.3 0 .5.9.8 1.9.8 1.8 0 3.1 1.8 3.1 4.4 0 2.1-7.8 5.2-9.8 3.9-2.2-1.3-2.9-9.9-.9-12.2.7-.9 2.1-3.5 3.1-5.7 1.8-4.1 4.4-6.2 7.9-6.3.9-.1 1.7.6 1.7 1.4zm-91 1.5c0 1.3-.7 2-2 2-1.9 0-2.7-2-1.3-3.3 1.3-1.4 3.3-.6 3.3 1.3zm9 .4c0 1.5-.7 2.6-2 2.9-3 .8-6-.3-6-2.2 0-2.5.9-3.1 4.7-3.1 2.8 0 3.3.3 3.3 2.4zm-8.1 3.2c2.4.5 3.1 1.2 3.1 3 0 2.5-.8 2.8-5.9 1.8-2.4-.5-3.1-1.2-3.1-3 0-2.5.8-2.8 5.9-1.8zm15.1 1.8c0 1.9-.6 2.5-3.1 2.8-4.7.7-8-.2-7.7-2.1.3-1.5 3.7-2.7 8.6-3 1.7-.1 2.2.4 2.2 2.3zm9.8.2c.2 1.6-.3 2.3-2.3 2.7-3.8.7-6.5-.2-6.5-2.2 0-2.6 1.1-3.2 5-2.9 2.7.2 3.6.8 3.8 2.4zm70 1.1c2 4.4 1.5 7.2-1.2 7.9-1.9.4-3.2-.1-5.5-2.5-1.7-1.8-3.1-3.4-3.1-3.6 0-.7 6.3-4.5 7.5-4.5.6 0 1.6 1.2 2.3 2.7zm-96.8 5.2c0 2.5-.3 2.8-2.6 2.3-1.7-.3-2.3-.9-2-1.9.3-.8.6-1.9.6-2.4s.9-.9 2-.9c1.5 0 2 .7 2 2.9zm10.8-.3c.2 1.7-.4 2.3-2.6 2.7-4.1.8-7.2-.2-7.2-2.3 0-1.9 2.5-2.9 7-2.6 1.7.1 2.6.8 2.8 2.2zm11 0c.2 1.6-.3 2.3-2.2 2.6-4.7.9-7.6-.2-7.6-2.9 0-2.3.3-2.4 4.8-2.1 3.9.2 4.8.7 5 2.4zm6.2-.1c0 2-.5 2.5-2.5 2.5s-2.5-.5-2.5-2.5.5-2.5 2.5-2.5 2.5.5 2.5 2.5zm48.4 4.4c-.2 5.6-2.3 9.1-5.6 9.1-1.5 0-1.8-.8-1.8-6 0-5.5.2-6.1 2.8-7.4 4-2.2 4.7-1.5 4.6 4.3zm-71.9 2.2c0 2.2-.4 2.4-5.2 2.7-2.9.2-5.3.1-5.3-.2 0-.3.4-1.5.9-2.8.8-2.1 1.5-2.4 5.3-2.3 3.9.1 4.3.3 4.3 2.6zm11-.1c0 2.2-.5 2.5-4.3 2.8-4.4.3-6.1-1.1-4.8-4.4.4-1.1 1.7-1.4 4.8-1.2 3.8.3 4.3.6 4.3 2.8zm13.8-.8c.4 1.2.5 2.3.4 2.4-.1.1-2.5.4-5.3.8-3.9.5-5.4.3-6.4-.9-2.4-2.9-.4-4.5 5.4-4.5 4.7 0 5.4.3 5.9 2.2zm38.7 2.7c0 2.7-.3 5.7-.6 6.6-.8 1.9-6.1 4.8-7.4 4-.6-.3-1-3.3-1-6.5 0-5.4.2-6.1 2.8-7.4 5-2.8 6.2-2.2 6.2 3.3zm30.7-.4c2.3 4.8.9 5.6-3 1.7-2.7-2.7-3-3.4-1.7-4.2 2.4-1.5 2.9-1.2 4.7 2.5zm-68.2 3.6c.8 2.5.9 2.5-3.7 3.2-3.5.5-3.8.4-3.8-1.8 0-3.6 6.4-4.9 7.5-1.4zm-29.8 1.9c0 2.7-.3 3-3.4 3-2.8 0-3.3-.3-3.3-2.4 0-2.4 1.2-3.2 5.1-3.5 1.1-.1 1.6.8 1.6 2.9zm6.1-.5c-1.1 2.5-4.2 3.4-5.3 1.5-1-1.6 1.5-4 4.1-4 2.2 0 2.3.2 1.2 2.5zm15.2 0c0 3-2.5 3.4-4 .6-1.4-2.8-1.3-3.1 1.5-3.1 2 0 2.5.5 2.5 2.5zm8.8 5.1c.4 2.8-1.5 4.2-6.3 4.6-3.8.3-4 .2-4.3-2.9-.3-2.9-.1-3.2 3-3.6 5.7-.7 7.3-.3 7.6 1.9zm-25.8 1.9c0 3.4-.1 3.5-3.9 3.5-5.4 0-7.1-.8-7.1-3.5 0-2.4 0-2.4 9.3-3.3 1.3-.2 1.7.6 1.7 3.3zM290 169v5.2l3.8-.7c2-.4 6.4-1 9.6-1.4 3.3-.3 6.1-1.1 6.3-1.7.2-.6-3.4-2.1-8.4-3.4-4.8-1.3-9.4-2.5-10-2.8-.9-.3-1.3 1-1.3 4.8zM69.6 172.4c-4.4 1.7-8.1 3.7-8.4 4.4-.9 2.8 19.2.3 20.3-2.6.7-1.8-1.2-5.2-2.8-5.1-.7.1-4.8 1.5-9.1 3.3z"/><path d="M317.3 187.7c-13.4.2-24.3.5-24.3.6 0 .2 1.2 3.2 2.6 6.8 1.5 3.5 3.8 10.7 5.2 15.9 2.2 8.4 2.5 11.6 2.6 28 .1 25.3-2 34.2-12.4 50.6-2.2 3.5-4 6.6-4 6.9 0 .7-4.2 5.6-11.5 13.3-16.5 17.5-42.4 31.1-66.2 34.7-19.7 3-36.6 1.5-55.8-4.9-11.3-3.8-25.3-10.7-31.8-15.6-40-30.3-54.5-71-42.2-117.8 1.4-5.2 2.5-9.8 2.5-10.3 0-.6-2.3-.7-5.7-.4-3.2.4-15 1.2-26.3 1.8l-20.5 1.2-1.2 5c-4.1 16.3-4.2 46.9-.3 64 7.5 32.9 21.5 57.4 47 81.8 22 21.1 46.9 34.3 80.5 42.6 11.9 2.9 22.2 4.1 36 4.1 43.7 0 85.2-17.5 115.5-48.6 21.1-21.7 31.8-38.7 40-63.3 5.7-17.1 7.4-27.7 7.3-46.6 0-13.2-.5-18.1-2.6-28-3.3-15.8-5.6-22-8.2-22-1.1-.1-12.9.1-26.2.2zm26.5 7.9c4.1 11.9 5.6 23.7 5.6 44.9.1 18.9-.2 21.9-2.3 30.5-6.6 26.5-17.5 46.4-37.3 68.1-30.1 32.9-73.3 51.8-118.7 51.9-14.8 0-29.4-2.2-46.1-7-29.7-8.4-48.5-19.1-70.4-40.1-22.2-21.2-36.3-46.1-42.8-75.7-3-13.3-3.2-41.1-.4-55.5 1-5.4 2.3-10 3-10.2 1.9-.7 40.7-2.7 41.2-2.2.3.2-.4 4.9-1.5 10.3-5 25.6-2.8 49.1 6.9 71.6 12.8 29.7 44.4 54.4 83.1 65 7.4 2 10.7 2.3 26.9 2.3 14.9 0 20-.4 26-1.9 29.2-7.4 58.4-27.7 74.6-51.8 16.9-25.2 20.8-61.3 10.2-94.6-1.1-3.4-1.7-6.9-1.4-7.7.4-1.2 4-1.5 18.8-1.7 25.4-.4 23.1-.8 24.6 3.8z"/><path d="M306.5 197c-.3.5.1 3.3.9 6.2 8 28.1 5.6 59.5-6.3 85.2-12.6 27.1-44.8 53.1-78.6 63.3-8.5 2.5-10.1 2.7-29.5 2.7-18.9.1-21.4-.1-31.9-2.6-18.7-4.5-40-16-57.4-31.1-17.4-15-30.9-40-35.2-65.1-1.9-11.1-1.9-31.5 0-42.1.8-4.4 1.1-8.2.7-8.6-.8-.6-30.1.7-30.8 1.4-.3.2-1.2 4-2 8.3-2.3 11.2-2.3 36.8 0 49.9 6.9 38.6 28.9 70.6 64.7 93.8 17.7 11.5 38.3 20.2 58.3 24.5 10.8 2.3 14.3 2.6 32.6 2.6 16.1.1 22.3-.3 28.7-1.7 11.9-2.6 26.4-7.7 36.8-13 10-5 28.6-17.1 36.3-23.6 7.1-6 21.6-22.7 28-32.3 20.4-30.4 27.2-68.6 19.6-110.1l-1.6-8.7h-16.3c-9.5 0-16.6.4-17 1z"/></svg>